<svg width="48" height="43" viewBox="0 0 48 43" fill="none" xmlns="http://www.w3.org/2000/svg">
<g clip-path="url(#clip0_23_290)">
<path d="M16.0608 0H4.64259C2.08745 0 0 2.13368 0 4.74539V8.84951C0 11.0881 1.77947 12.9187 3.98099 12.9187H12.7985C13.3004 12.9187 13.711 13.3384 13.711 13.8514V14.5043C13.711 15.3438 14.3726 16.0201 15.2281 16.0201C16.0837 16.0201 16.711 15.3438 16.711 14.5043V11.3679C16.711 10.5401 16.0494 9.85222 15.2281 9.85222L3.91255 9.80558C3.41065 9.80558 3 9.38585 3 8.87283V4.76871C3 3.84761 3.73004 3.08975 4.64259 3.08975H16.0608C16.8821 3.08975 17.5437 2.4135 17.5437 1.53905C17.5437 0.664588 16.8821 0.0233189 16.0608 0.0233189V0Z" fill="white"/>
<path d="M15.3879 20.1592C14.5666 20.1592 13.905 20.8354 13.905 21.6749V25.4875C13.905 26.0006 13.4944 26.4203 12.9925 26.4203H3.95824C3.45634 26.4203 3.0457 26.0006 3.0457 25.4875V21.6749C3.0457 20.8354 2.3841 20.1592 1.52858 20.1592C0.673072 20.1592 0.0456951 20.8354 0.0456951 21.6749V27.971C0.0456951 28.8105 0.707292 29.4867 1.52858 29.4867H12.9811C13.483 29.4867 13.8936 29.9065 13.8936 30.4195V38.9892C13.8936 39.5022 13.483 39.9219 12.9811 39.9219H5.19018C3.99246 39.9219 3.01147 38.9192 3.01147 37.695V34.407C3.01147 33.5675 2.34988 32.8913 1.49436 32.8913C0.638851 32.8913 0.0114746 33.5675 0.0114746 34.407V37.695C0.0114746 40.6215 2.33847 42.9884 5.19018 42.9884H15.4221C16.2434 42.9884 16.905 42.3121 16.905 41.4726V21.6632C16.905 20.8238 16.2434 20.1475 15.3879 20.1475V20.1592Z" fill="white"/>
<path d="M43.6654 0H29.8745C29.0532 0 28.3916 0.676247 28.3916 1.51573V14.2595C28.3916 15.099 29.0532 15.7752 29.9087 15.7752C30.7642 15.7752 31.3916 15.099 31.3916 14.2595V13.933C31.3916 13.42 31.8022 13.0003 32.3041 13.0003H43.4943C43.9962 13.0003 44.4068 13.42 44.4068 13.933V26.5835C44.4068 27.423 45.0684 28.0992 45.9239 28.0992C46.7794 28.0992 47.4068 27.423 47.4068 26.5835V3.80098C47.4068 1.70228 45.7186 0 43.654 0H43.6654ZM44.4182 3.80098V9.00108C44.4182 9.5141 44.0076 9.93384 43.5057 9.93384H32.3156C31.8137 9.93384 31.403 9.5141 31.403 9.00108V4.01085C31.403 3.49783 31.8137 3.07809 32.3156 3.07809H43.6654C44.0874 3.07809 44.4182 3.40456 44.4182 3.81264V3.80098Z" fill="white"/>
<path d="M45.9468 39.9685H24.8327C24.3308 39.9685 23.9202 39.5488 23.9202 39.0358V1.51573C23.9202 0.676247 23.2586 0 22.4373 0H22.4031C21.5818 0 20.9202 0.676247 20.9202 1.51573V41.4843C20.9202 42.3238 21.5818 43 22.4031 43H45.9468C46.7681 43 47.4297 42.3238 47.4297 41.4843C47.4297 40.6448 46.7681 39.9685 45.9468 39.9685Z" fill="white"/>
<path d="M29.886 36.2026H37.3119C38.1332 36.2026 38.7948 35.5263 38.7948 34.6519C38.7948 33.7774 38.1332 33.1361 37.3119 33.1361H32.3271C31.8252 33.1361 31.4146 32.7164 31.4146 32.2034V21.6749C31.4146 20.8354 30.753 20.1592 29.9317 20.1592H29.8974C29.0761 20.1592 28.4146 20.8354 28.4146 21.6749V34.6868C28.4146 35.5263 29.0761 36.2026 29.8974 36.2026H29.886Z" fill="white"/>
<path d="M45.9238 32.9962C45.0227 32.9962 44.2812 33.7541 44.2812 34.6752C44.2812 35.5963 45.0227 36.3541 45.9238 36.3541C46.825 36.3541 47.5664 35.5963 47.5664 34.6752C47.5664 33.7541 46.825 32.9962 45.9238 32.9962Z" fill="#FF6112" stroke="#FF6112" stroke-width="0.75" stroke-miterlimit="10"/>
</g>
<defs>
<clipPath id="clip0_23_290">
<rect width="48" height="43" fill="white"/>
</clipPath>
</defs>
</svg>